<?xml version="1.0" encoding="UTF-8" standalone="no"?>
<!DOCTYPE svg PUBLIC "-//W3C//DTD SVG 1.1//EN" "http://www.w3.org/Graphics/SVG/1.1/DTD/svg11.dtd">
<svg width="100%" height="100%" viewBox="0 0 2059 551" version="1.1" xmlns="http://www.w3.org/2000/svg" xmlns:xlink="http://www.w3.org/1999/xlink" xml:space="preserve" xmlns:serif="http://www.serif.com/" style="fill-rule:evenodd;clip-rule:evenodd;stroke-linejoin:round;stroke-miterlimit:2;">
    <g transform="matrix(1,0,0,1,-147.008,-5949.78)">
        <g transform="matrix(2.66667,0,0,2.66667,0,4308)">
            <g transform="matrix(1,0,0,1,165.541,745.859)">
                <path d="M0,-120.981L-96.478,-120.981L-102.945,-96.77L-70.506,-96.77L-96.354,0L-64.859,0L-39.011,-96.77L-6.467,-96.77L0,-120.981Z" style="fill-rule:nonzero;"/>
            </g>
            <g transform="matrix(1,0,0,1,235.002,745.859)">
                <path d="M0,-120.981L-11.556,-77.715L-37.423,-77.715L-25.866,-120.981L-63.689,-120.981L-96.004,0L-58.181,0L-44.609,-50.814L-18.742,-50.814L-32.314,0L5.507,0L37.822,-120.981L0,-120.981Z" style="fill-rule:nonzero;"/>
            </g>
            <g transform="matrix(1,0,0,1,704.868,675.693)">
                <path d="M0,19.353L6.147,-3.663L-34.086,-3.663L-27.958,-26.603L14.163,-26.603L20.63,-50.814L-52.986,-50.814L-85.302,70.167L-8.749,70.167L-2.282,45.955L-47.339,45.955L-40.234,19.353L0,19.353Z" style="fill-rule:nonzero;"/>
            </g>
            <g transform="matrix(1,0,0,1,791.254,712.51)">
                <path d="M0,-54.283C0,-54.283 -1.276,-47.898 -7.282,-44.818C-7.916,-44.47 -8.584,-44.183 -9.287,-43.983C-10.726,-43.574 -12.272,-43.415 -13.851,-43.415L-30.004,-43.415L-24.027,-65.151L-8.604,-65.151C-4.827,-65.151 -1.468,-62.752 -0.242,-59.18C0.309,-57.573 0.364,-55.879 -0.014,-54.283L0,-54.283ZM33.186,-77.133C29.793,-81.84 24.562,-84.766 17.495,-85.913C10.423,-87.059 -3.528,-87.632 -24.361,-87.632L-49.917,-87.632L-82.232,33.349L-50.105,33.349L-36.167,-17.029L-15.683,-17.029C-15.683,-17.029 -7.799,-16.969 -13.289,-2.681L-24.027,33.349L10.649,33.349L19.171,1.441C21.78,-8.321 23.005,-14.288 22.852,-16.455C22.695,-18.622 21.461,-21.002 19.146,-23.592C16.832,-26.181 11.512,-28.25 3.185,-29.794C13.006,-30.44 19.99,-32.383 24.143,-35.623C28.293,-38.861 31.627,-45.188 34.141,-54.603C36.896,-64.916 36.576,-72.424 33.186,-77.133" style="fill-rule:nonzero;"/>
            </g>
            <g transform="matrix(1,0,0,1,597.137,714.989)">
                <path d="M0,-59.239L-14.195,-6.264C-16.117,0.905 -22.613,5.89 -30.035,5.89L-43.435,5.89L-23.925,-66.918L-5.892,-66.918C-1.881,-66.918 1.039,-63.114 0,-59.239M10.962,16.711C13.371,13.049 16.027,5.79 18.929,-5.072L30.246,-47.442C33.307,-58.9 34.87,-66.583 34.936,-70.494C35.001,-74.405 33.503,-77.955 30.439,-81.143C27.375,-84.33 22.271,-86.623 15.128,-88.018C7.988,-89.411 0.081,-90.11 -21.242,-90.11L-51.112,-90.11L-71.128,-15.175L-100.272,-15.175L-128.597,30.871L-30.906,30.871C-20.349,30.871 -18.667,30.461 -13.203,29.639C-7.741,28.817 -2.951,27.372 1.167,25.305C5.284,23.237 8.548,20.373 10.962,16.711" style="fill-rule:nonzero;"/>
            </g>
            <g transform="matrix(1,0,0,1,360.494,748.4)">
                <path d="M26.115,-123.522L-11.764,-123.522L-35.058,-36.872C-36.232,-32.504 -40.191,-29.469 -44.714,-29.469L-58.239,-29.469C-60.593,-29.469 -62.305,-31.702 -61.694,-33.975L-37.621,-123.522L-74.874,-123.522L-93.996,-51.935C-97.642,-38.285 -99.684,-29.329 -100.123,-25.07C-100.561,-20.811 -99.368,-16.764 -96.547,-12.928C-93.729,-9.09 -88.756,-5.978 -81.635,-3.587C-74.513,-1.196 -65.884,0 -55.747,0C-46.588,0 -38.367,-1.008 -31.083,-3.026C-23.797,-5.043 -17.571,-8.007 -12.402,-11.918C-7.232,-15.829 -3.73,-19.64 -1.899,-23.351C-0.069,-27.063 2.07,-33.502 4.518,-42.669L26.115,-123.522Z" style="fill-rule:nonzero;"/>
            </g>
            <g transform="matrix(1,0,0,1,55.1279,764.189)">
                <path d="M0,56.36L41.574,56.36L45.301,40.996L22.148,40.996L23.574,35.105L43.346,35.105L46.848,20.777L27.075,20.777L28.389,15.364L49.092,15.364L52.819,0L13.695,0L0,56.36Z" style="fill-rule:nonzero;"/>
            </g>
            <g transform="matrix(1,0,0,1,208.756,820.549)">
                <path d="M0,-56.36L-13.174,-41.314L-18.844,-56.36L-41.067,-56.36L-27.949,-29.374L-57.552,0L-33.554,0L-18.424,-16.796L-11.837,0L10.724,0L-3.685,-29.612L23.66,-56.36L0,-56.36Z" style="fill-rule:nonzero;"/>
            </g>
            <g transform="matrix(1,0,0,1,317.389,801.682)">
                <path d="M0,-18.626C-0.1,-16.821 -0.935,-15.494 -2.503,-14.646C-4.071,-13.796 -6.207,-13.372 -8.911,-13.372L-12.037,-13.372L-9.638,-23.084L-6.681,-23.084C-4.541,-23.084 -2.868,-22.766 -1.664,-22.129C-0.462,-21.491 0.094,-20.324 0,-18.626M14.106,-32.954C10.189,-35.979 4.372,-37.493 -3.344,-37.493L-25.653,-37.493L-39.35,18.867L-19.914,18.867L-15.343,0.479L-9.596,0.479C-5.201,0.479 -1.265,0.068 2.218,-0.755C5.699,-1.578 8.698,-2.837 11.217,-4.537C13.732,-6.234 15.699,-8.41 17.113,-11.064C18.529,-13.717 19.336,-16.847 19.536,-20.457C19.832,-25.763 18.021,-29.929 14.106,-32.954" style="fill-rule:nonzero;"/>
            </g>
            <g transform="matrix(1,0,0,1,428.762,801.682)">
                <path d="M0,-18.626C-0.1,-16.821 -0.907,-15.508 -2.417,-14.686C-3.929,-13.862 -5.979,-13.452 -8.57,-13.452L-12.457,-13.452L-10.156,-22.924L-6.521,-22.924C-4.437,-22.924 -2.808,-22.618 -1.63,-22.009C-0.453,-21.399 0.091,-20.27 0,-18.626M14.512,-33.433C12.726,-34.758 10.528,-35.768 7.92,-36.457C5.31,-37.146 2.371,-37.493 -0.895,-37.493L-25.485,-37.493L-39.181,18.867L-20.337,18.867L-15.472,-1.75L-13.106,-1.75L-6.057,18.867L15.913,18.867L5.532,-4.138C9.649,-5.253 12.961,-7.323 15.468,-10.347C17.973,-13.372 19.357,-17.219 19.616,-21.89C19.754,-24.383 19.384,-26.599 18.507,-28.537C17.628,-30.474 16.296,-32.105 14.512,-33.433" style="fill-rule:nonzero;"/>
            </g>
            <g transform="matrix(1,0,0,1,503.149,764.189)">
                <path d="M0,56.36L41.574,56.36L45.302,40.996L22.148,40.996L23.575,35.105L43.347,35.105L46.848,20.777L27.074,20.777L28.39,15.364L49.093,15.364L52.82,0L13.696,0L0,56.36Z" style="fill-rule:nonzero;"/>
            </g>
            <g transform="matrix(1,0,0,1,635.668,806.38)">
                <path d="M0,-28.021C1.301,-28.658 2.741,-28.977 4.319,-28.977C6.346,-28.977 8.103,-28.645 9.587,-27.981C11.072,-27.316 12.262,-26.455 13.162,-25.395L26.301,-36.778C25.288,-37.839 24.018,-38.793 22.488,-39.643C20.958,-40.492 19.281,-41.222 17.457,-41.833C15.631,-42.442 13.685,-42.919 11.62,-43.265C9.554,-43.61 7.451,-43.782 5.312,-43.782C1.425,-43.782 -2.168,-43.265 -5.465,-42.23C-8.761,-41.196 -11.629,-39.762 -14.069,-37.932C-16.509,-36.101 -18.431,-33.938 -19.837,-31.444C-21.243,-28.949 -22.028,-26.242 -22.19,-23.324C-22.323,-20.936 -22.043,-18.907 -21.346,-17.234C-20.651,-15.563 -19.646,-14.131 -18.331,-12.936C-17.018,-11.742 -15.441,-10.72 -13.6,-9.872C-11.762,-9.022 -9.789,-8.28 -7.683,-7.643C-5.023,-6.847 -3.221,-6.076 -2.276,-5.333C-1.333,-4.591 -0.886,-3.742 -0.939,-2.787C-1.004,-1.619 -1.646,-0.729 -2.862,-0.12C-4.079,0.49 -5.674,0.795 -7.645,0.795C-8.547,0.795 -9.526,0.676 -10.582,0.437C-11.64,0.199 -12.679,-0.12 -13.698,-0.519C-14.719,-0.916 -15.692,-1.406 -16.616,-1.991C-17.543,-2.574 -18.322,-3.237 -18.956,-3.98L-32.954,7.641C-31.615,8.915 -30.017,10.057 -28.158,11.064C-26.299,12.073 -24.305,12.922 -22.173,13.612C-20.043,14.301 -17.805,14.831 -15.459,15.203C-13.115,15.574 -10.759,15.761 -8.392,15.761C-5.408,15.761 -2.322,15.389 0.864,14.646C4.05,13.904 6.991,12.736 9.689,11.144C12.386,9.552 14.646,7.482 16.472,4.935C18.296,2.387 19.309,-0.69 19.51,-4.299C19.628,-6.421 19.355,-8.332 18.691,-10.03C18.028,-11.729 17.03,-13.241 15.702,-14.568C14.372,-15.894 12.725,-17.062 10.761,-18.071C8.797,-19.078 6.546,-19.982 4.009,-20.777C1.968,-21.414 0.43,-22.023 -0.605,-22.608C-1.638,-23.191 -2.125,-24.013 -2.065,-25.076C-1.992,-26.401 -1.304,-27.384 0,-28.021" style="fill-rule:nonzero;"/>
            </g>
            <g transform="matrix(1,0,0,1,740.534,806.38)">
                <path d="M0,-28.021C1.301,-28.658 2.741,-28.977 4.319,-28.977C6.346,-28.977 8.104,-28.645 9.587,-27.981C11.072,-27.316 12.262,-26.455 13.163,-25.395L26.301,-36.778C25.288,-37.839 24.018,-38.793 22.489,-39.643C20.958,-40.492 19.281,-41.222 17.457,-41.833C15.631,-42.442 13.685,-42.919 11.621,-43.265C9.554,-43.61 7.452,-43.782 5.312,-43.782C1.425,-43.782 -2.168,-43.265 -5.464,-42.23C-8.761,-41.196 -11.629,-39.762 -14.068,-37.932C-16.508,-36.101 -18.431,-33.938 -19.837,-31.444C-21.243,-28.949 -22.028,-26.242 -22.19,-23.324C-22.323,-20.936 -22.042,-18.907 -21.346,-17.234C-20.651,-15.563 -19.646,-14.131 -18.331,-12.936C-17.018,-11.742 -15.441,-10.72 -13.6,-9.872C-11.762,-9.022 -9.789,-8.28 -7.683,-7.643C-5.023,-6.847 -3.221,-6.076 -2.276,-5.333C-1.333,-4.591 -0.885,-3.742 -0.939,-2.787C-1.004,-1.619 -1.645,-0.729 -2.862,-0.12C-4.079,0.49 -5.673,0.795 -7.645,0.795C-8.547,0.795 -9.526,0.676 -10.582,0.437C-11.64,0.199 -12.679,-0.12 -13.698,-0.519C-14.719,-0.916 -15.691,-1.406 -16.616,-1.991C-17.542,-2.574 -18.322,-3.237 -18.956,-3.98L-32.954,7.641C-31.614,8.915 -30.016,10.057 -28.158,11.064C-26.299,12.073 -24.305,12.922 -22.173,13.612C-20.043,14.301 -17.805,14.831 -15.459,15.203C-13.114,15.574 -10.759,15.761 -8.392,15.761C-5.407,15.761 -2.322,15.389 0.865,14.646C4.05,13.904 6.991,12.736 9.689,11.144C12.387,9.552 14.647,7.482 16.472,4.935C18.296,2.387 19.31,-0.69 19.51,-4.299C19.628,-6.421 19.355,-8.332 18.692,-10.03C18.028,-11.729 17.031,-13.241 15.703,-14.568C14.372,-15.894 12.725,-17.062 10.761,-18.071C8.797,-19.078 6.546,-19.982 4.009,-20.777C1.968,-21.414 0.431,-22.023 -0.605,-22.608C-1.638,-23.191 -2.125,-24.013 -2.065,-25.076C-1.992,-26.401 -1.303,-27.384 0,-28.021" style="fill-rule:nonzero;"/>
            </g>
            <g transform="matrix(1,0,0,1,514.506,699.813)">
                <path d="M0,-28.889L28.326,-74.935L-47.108,-74.935L-64.189,-9.135L-88.306,-74.935L-115.096,-74.935L-147.412,46.046L-116.825,46.046L-100.236,-11.932L-74.881,46.046L-48.837,46.046L-28.821,-28.889L0,-28.889Z" style="fill-rule:nonzero;"/>
            </g>
            <g transform="matrix(1,0,0,1,485.686,700.273)">
                <path d="M0,-29.349L-22.908,55.257L11.179,-0.46L40.323,-0.46L62.87,-84.606L28.821,-29.349L0,-29.349Z" style="fill:rgb(255,200,1);fill-rule:nonzero;"/>
            </g>
        </g>
    </g>
</svg>
